<svg viewBox="0 0 35 35" xmlns="http://www.w3.org/2000/svg">
    <g fill-rule="nonzero" fill="none">
        <circle class="circle" stroke="#F0F0F0" stroke-width="2" cx="17.5" cy="17.5" r="16.5" />
        <path d="M14.601 14.143V21.7h-2.55v-7.557h2.55zm.168-2.338c0 .726-.553 1.306-1.443 1.306h-.016c-.856 0-1.41-.58-1.41-1.306 0-.74.57-1.305 1.443-1.305.873 0 1.41.564 1.426 1.305zm9.031 5.562V21.7h-2.55v-4.043c0-1.016-.37-1.709-1.293-1.709-.705 0-1.124.468-1.309.919-.067.161-.084.387-.084.613v4.22h-2.55s.033-6.848 0-7.557h2.55v1.07c.339-.514.945-1.248 2.3-1.248 1.678 0 2.936 1.08 2.936 3.402z" fill="#000" />
    </g>
</svg>