<?xml version="1.0" encoding="UTF-8"?>
<svg viewBox="0 0 35 35" version="1.1" xmlns="http://www.w3.org/2000/svg" xmlns:xlink="http://www.w3.org/1999/xlink">
    <title>Group 8</title>
    <g id="Filecoin-Blog" stroke="none" stroke-width="1" fill="none" fill-rule="evenodd">
        <g id="Article-Page---Modules---1440px" transform="translate(-1121.000000, -963.000000)" fill-rule="nonzero">
            <g id="Group-9" transform="translate(279.000000, 963.000000)">
                <g id="Group-8" transform="translate(842.000000, 0.000000)">
                    <circle id="Oval-Copy-5" stroke="#F0F0F0" stroke-width="2" cx="17.5" cy="17.5" r="16.5"></circle>
                    <path d="M21.3867008,12.0406593 C21.311509,11.9410256 21.2216965,11.8455433 21.1172634,11.7542125 C20.7580136,11.3847375 20.3173061,11.2 19.7951407,11.2 C19.2771526,11.2 18.8260017,11.3847375 18.441688,11.7542125 C18.0699062,12.1278388 17.8840153,12.5761905 17.8840153,13.0992674 C17.8840153,13.2528694 17.9028133,13.4002442 17.9404092,13.5413919 L14.8575448,15.5776557 C14.5567775,15.3659341 14.2058824,15.2600733 13.8048593,15.2600733 C13.2910486,15.2600733 12.8398977,15.442735 12.4514066,15.8080586 C12.0838022,16.181685 11.9,16.6300366 11.9,17.1531136 C11.9,17.6637363 12.0838022,18.1037851 12.4514066,18.4732601 C12.8398977,18.8551893 13.2910486,19.0461538 13.8048593,19.0461538 C14.201705,19.0461538 14.5505115,18.9382173 14.8512788,18.7223443 L17.9404092,20.7710623 C17.9028133,20.91221 17.8840153,21.0575092 17.8840153,21.2069597 C17.8840153,21.7258852 18.0699062,22.1659341 18.441688,22.5271062 C18.8260017,22.9090354 19.2771526,23.1 19.7951407,23.1 C20.3173061,23.1 20.7580136,22.9090354 21.1172634,22.5271062 C21.2216965,22.4357753 21.311509,22.3444444 21.3867008,22.2531136 C21.5955669,21.9500611 21.7,21.6013431 21.7,21.2069597 C21.7,20.8167277 21.5955669,20.4659341 21.3867008,20.1545788 C21.311509,20.0507937 21.2216965,19.9532357 21.1172634,19.8619048 C20.7580136,19.4965812 20.3173061,19.3139194 19.7951407,19.3139194 C19.3815857,19.3139194 19.0077153,19.4322344 18.6735294,19.6688645 L15.6470588,17.6637363 C15.6888321,17.5018315 15.7097187,17.3316239 15.7097187,17.1531136 C15.7097187,16.9746032 15.6909207,16.8043956 15.6533248,16.6424908 L18.6923274,14.6373626 C19.0181586,14.8739927 19.385763,14.9923077 19.7951407,14.9923077 C20.3173061,14.9923077 20.7580136,14.7992674 21.1172634,14.4131868 C21.2216965,14.3260073 21.311509,14.2367521 21.3867008,14.1454212 C21.5955669,13.8382173 21.7,13.4894994 21.7,13.0992674 C21.7,12.704884 21.5955669,12.3520147 21.3867008,12.0406593 Z" id="Path" fill="#000000"></path>
                </g>
            </g>
        </g>
    </g>
</svg>