<svg viewBox="0 0 35 35" xmlns="http://www.w3.org/2000/svg">
    <g fill-rule="nonzero" fill="none">
        <circle class="circle" stroke="#F0F0F0" stroke-width="2" cx="17.5" cy="17.5" r="16.5" />
        <path d="M17.658 14.693l.029.454-.48-.055c-1.75-.213-3.278-.936-4.575-2.15l-.634-.603-.164.445c-.346.992-.125 2.039.596 2.743.384.39.298.445-.365.214-.23-.075-.433-.13-.452-.102-.067.064.164.908.346 1.242.25.463.76.917 1.317 1.186l.47.213-.557.01c-.538 0-.557.009-.5.203.193.603.952 1.242 1.798 1.52l.595.195-.519.296a5.603 5.603 0 01-2.575.686c-.432.01-.788.047-.788.075 0 .092 1.172.611 1.855.815 2.047.603 4.478.343 6.304-.686 1.297-.732 2.595-2.187 3.2-3.596.327-.75.653-2.122.653-2.78 0-.427.03-.482.567-.992.318-.297.616-.621.673-.714.096-.176.087-.176-.403-.018-.817.278-.933.24-.529-.176.298-.297.653-.835.653-.992 0-.028-.144.018-.307.102a5.513 5.513 0 01-.846.315l-.519.157-.47-.305c-.26-.167-.625-.353-.817-.408-.49-.13-1.24-.111-1.682.037-1.201.417-1.96 1.492-1.874 2.67z" fill="#000" />
    </g>
</svg>