<svg xmlns="http://www.w3.org/2000/svg" width="52" height="52" viewBox="0 0 52 52">
  <defs>
    <linearGradient id="blockchain-a" x1="87.148%" x2="15.394%" y1="79.214%" y2="17.612%">
      <stop offset="0%" stop-color="#39C1CB" stop-opacity=".99"/>
      <stop offset="100%" stop-color="#006FEC"/>
    </linearGradient>
    <linearGradient id="blockchain-b" x1="0%" x2="100%" y1="-8.357%" y2="100%">
      <stop offset="0%" stop-color="#39C1CB"/>
      <stop offset="100%" stop-color="#006FEC"/>
    </linearGradient>
  </defs>
  <g fill="none" fill-rule="evenodd" transform="translate(1 1)">
    <path fill="url(#blockchain-a)" d="M15.992 15.848l2.702 1.65.733.447.27.164.148.091.726.443v.334l-.013 4.721-.003.508L16.007 27l-4.578-2.794v-.51l.013-4.71.001-.343.716-.44.148-.091.277-.17.722-.444 2.686-1.65zm6.703-4.696l4.734 2.716v4.915l-3.137-1.818.44-.248.7-.394a.599.599 0 0 0 .227-.813.586.586 0 0 0-.397-.284l-1.57.887-.44.248-2.057 1.16-.154-.089L20 16.83l2.495-1.41.188-.105.012-4.162zm-13.379 0l-.012 4.139.194.109L12 16.818l-1.038.608-.153.09-2.067-1.171-.436-.247-1.57-.89a.591.591 0 0 0-.396.285.604.604 0 0 0 .227.816l.702.397.435.246-3.125 1.83-.008-.004v-5.12l4.745-2.506zM27.38 7.63l3.466 2.001 1.154.667-.015 5.309-3.445 2.002v-4.763l-5.111-2.92.083-.048 1.008-.587.15-.087 1.008-.585 1.702-.989zm-22.793 0l1.528.885.98.57.16.093.979.567.337.195-5.125 2.697v4.972L0 15.61l.016-5.312 1.146-.67L4.587 7.63zm5.525-4.695l4.745 2.506v5.12l-.007.004-3.125-1.83.434-.246.702-.399a.602.602 0 0 0 .227-.814.591.591 0 0 0-.395-.286l-1.57.89-.436.247L8.62 9.298l-.153-.09-1.038-.607L9.93 7.182l.193-.108-.012-4.14zm10.633 0l-.012 4.139.193.108 2.503 1.42-1.039.607-.153.09-2.067-1.172-.435-.246-1.57-.891a.591.591 0 0 0-.396.286.604.604 0 0 0 .227.816l.702.397.434.246-3.125 1.83L16 10.56V5.44l4.745-2.505zM15.322 0l4.107 2.348-3.99 2.348-4.01-2.274L15.322 0z" transform="translate(9 12)"/>
    <circle cx="25" cy="25" r="25" stroke="url(#blockchain-b)" stroke-width="2"/>
  </g>
</svg>
