<svg width="28" height="28" xmlns="http://www.w3.org/2000/svg">
    <defs>
        <linearGradient x1="87.148%" y1="91.036%" x2="15.394%" y2="4.506%" id="a-cdn-white">
            <stop stop-color="#f3f3f3" stop-opacity=".99" offset="0%" />
            <stop stop-color="#ffffff" offset="100%" />
        </linearGradient>
    </defs>
    <path d="M14 1c7.168 0 13 5.832 13 13s-5.832 13-13 13S1 21.168 1 14 6.833 1 14 1zm6.3 19.755c-.873 2.254-2.166 4.004-3.695 4.952a11.987 11.987 0 006.24-3.626 16.413 16.413 0 00-2.544-1.326zm-12.6 0c-.883.365-1.732.808-2.546 1.326a11.987 11.987 0 006.242 3.626c-1.53-.948-2.824-2.698-3.697-4.952zm6.8-1.236v5.936c2.035-.276 3.813-2.207 4.892-5.042a16.398 16.398 0 00-4.891-.894zm-1 0a16.399 16.399 0 00-4.893.894c1.08 2.835 2.857 4.766 4.894 5.042zm-2.648 1.219a1 1 0 111.296 1.524 1 1 0 01-1.296-1.524zM25.974 14.5h-4.49c-.045 1.911-.344 3.713-.85 5.311.994.407 1.95.908 2.863 1.498a11.928 11.928 0 002.477-6.809zm-19.459 0h-4.49a11.928 11.928 0 002.478 6.809 17.496 17.496 0 012.862-1.498c-.506-1.598-.804-3.4-.85-5.311zm13.97 0h-5.984v4.019a17.44 17.44 0 015.216.949c.457-1.489.725-3.178.768-4.968zm-6.984 0H7.515c.044 1.79.312 3.479.769 4.968a17.441 17.441 0 015.216-.949V14.5zm-9.648 1.237a1 1 0 111.293 1.525 1 1 0 01-1.293-1.525zm19 0a1 1 0 111.294 1.525 1 1 0 01-1.293-1.525zm.643-9.046a17.496 17.496 0 01-2.861 1.498c.505 1.598.804 3.4.85 5.311h4.49a11.928 11.928 0 00-2.479-6.809zm-18.992 0A11.928 11.928 0 002.025 13.5h4.49c.045-1.911.343-3.713.85-5.311a17.496 17.496 0 01-2.862-1.498zm3.78 1.841c-.458 1.488-.726 3.178-.77 4.968h5.987V9.481a17.441 17.441 0 01-5.217-.949zm11.432 0a17.44 17.44 0 01-5.216.949V13.5h5.985c-.043-1.79-.311-3.48-.768-4.968zm-3.862 2.205a1 1 0 111.293 1.525 1 1 0 01-1.293-1.525zM13.5 2.545c-2.037.276-3.813 2.207-4.893 5.042 1.566.542 3.21.845 4.893.894zm1 0v5.936a16.398 16.398 0 004.891-.894c-1.08-2.835-2.857-4.766-4.891-5.042zM10.532 6.25a.999.999 0 11.718 1.218.998.998 0 01-.718-1.218zm.864-3.957a11.987 11.987 0 00-6.242 3.626c.814.518 1.663.961 2.545 1.326.873-2.253 2.168-4.004 3.697-4.952zm5.209 0c1.529.948 2.822 2.699 3.695 4.952a16.413 16.413 0 002.546-1.326 11.987 11.987 0 00-6.241-3.626z" fill="url(#a-cdn-white)" fill-rule="evenodd" />
</svg>