<svg xmlns="http://www.w3.org/2000/svg" width="52" height="52" viewBox="0 0 52 52">
  <defs>
    <linearGradient id="cdn-a" x1="0%" x2="100%" y1="-8.357%" y2="100%">
      <stop offset="0%" stop-color="#39C1CB"/>
      <stop offset="100%" stop-color="#006FEC"/>
    </linearGradient>
    <linearGradient id="cdn-b" x1="87.148%" x2="15.394%" y1="91.036%" y2="4.506%">
      <stop offset="0%" stop-color="#39C1CB" stop-opacity=".99"/>
      <stop offset="100%" stop-color="#006FEC"/>
    </linearGradient>
  </defs>
  <g fill="none" fill-rule="evenodd" transform="translate(1 1)">
    <circle cx="25" cy="25" r="25" stroke="url(#cdn-a)" stroke-width="2"/>
    <path fill="url(#cdn-b)" d="M16 0c8.82 0 16 7.178 16 16s-7.18 16-16 16C7.178 32 0 24.822 0 16S7.178 0 16 0zm7.754 24.314c-1.075 2.774-2.667 4.928-4.55 6.095a14.753 14.753 0 0 0 7.682-4.463 20.2 20.2 0 0 0-3.132-1.632zm-15.51 0a20.2 20.2 0 0 0-3.131 1.632 14.753 14.753 0 0 0 7.68 4.463c-1.881-1.167-3.474-3.321-4.548-6.095zm8.371-1.521v7.305c2.505-.34 4.692-2.716 6.021-6.205a20.182 20.182 0 0 0-6.02-1.1zm-1.23 0c-2.07.06-4.095.433-6.023 1.1 1.33 3.49 3.517 5.866 6.023 6.205zm-3.26 1.5a1.23 1.23 0 1 1 1.594 1.875 1.23 1.23 0 0 1-1.593-1.875zm18.612-7.678h-5.526c-.055 2.352-.423 4.57-1.046 6.537a21.45 21.45 0 0 1 3.522 1.844 14.68 14.68 0 0 0 3.05-8.38zm-23.95 0H1.263a14.68 14.68 0 0 0 3.05 8.38 21.533 21.533 0 0 1 3.522-1.843c-.623-1.967-.99-4.185-1.046-6.537zm17.195 0h-7.367v4.947a21.45 21.45 0 0 1 6.42 1.168c.563-1.833.892-3.912.947-6.115zm-8.597 0H8.017c.054 2.203.384 4.282.947 6.115a21.466 21.466 0 0 1 6.42-1.168v-4.947zM3.51 18.138a1.23 1.23 0 1 1 1.591 1.877 1.23 1.23 0 0 1-1.59-1.877zm23.385 0a1.23 1.23 0 1 1 1.592 1.877 1.23 1.23 0 0 1-1.592-1.877zm.791-11.134a21.533 21.533 0 0 1-3.522 1.844c.623 1.967.99 4.185 1.046 6.537h5.526a14.68 14.68 0 0 0-3.05-8.38zm-23.376 0a14.68 14.68 0 0 0-3.05 8.38h5.527c.055-2.351.423-4.57 1.046-6.536A21.533 21.533 0 0 1 4.31 7.004zM8.964 9.27c-.563 1.832-.893 3.912-.947 6.115h7.368v-4.947A21.466 21.466 0 0 1 8.964 9.27zm14.071 0a21.466 21.466 0 0 1-6.42 1.168v4.947h7.367c-.055-2.203-.384-4.283-.947-6.115zm-4.754 2.714a1.23 1.23 0 1 1 1.591 1.877 1.23 1.23 0 0 1-1.591-1.877zM15.385 1.902c-2.506.34-4.693 2.716-6.023 6.205a20.183 20.183 0 0 0 6.023 1.1zm1.23 0v7.305a20.182 20.182 0 0 0 6.021-1.1c-1.329-3.49-3.516-5.866-6.02-6.205zM11.731 6.46a1.229 1.229 0 0 1 1.5-.883 1.23 1.23 0 1 1-.616 2.382 1.228 1.228 0 0 1-.884-1.5zm1.063-4.87a14.753 14.753 0 0 0-7.681 4.463 20.2 20.2 0 0 0 3.132 1.632c1.074-2.773 2.667-4.928 4.549-6.095zm6.41 0c1.883 1.167 3.475 3.322 4.55 6.095a20.2 20.2 0 0 0 3.132-1.632 14.753 14.753 0 0 0-7.681-4.463z" transform="translate(9 9)"/>
  </g>
</svg>
