<svg xmlns="http://www.w3.org/2000/svg" width="52" height="52" viewBox="0 0 52 52">
  <defs>
    <linearGradient id="cloud-storage-a" x1="0%" x2="100%" y1="-8.357%" y2="100%">
      <stop offset="0%" stop-color="#39C1CB"/>
      <stop offset="100%" stop-color="#006FEC"/>
    </linearGradient>
    <linearGradient id="cloud-storage-b" x1="70.896%" x2="30.534%" y1="91.036%" y2="4.506%">
      <stop offset="0%" stop-color="#39C1CB" stop-opacity=".99"/>
      <stop offset="100%" stop-color="#006FEC"/>
    </linearGradient>
  </defs>
  <g fill="none" fill-rule="evenodd" transform="translate(1 1)">
    <circle cx="25" cy="25" r="25" stroke="url(#cloud-storage-a)" stroke-width="2"/>
    <path fill="url(#cloud-storage-b)" d="M20.65 27.5v3.3H4.15v-3.3h16.5zM19 28.6a.55.55 0 1 0 0 1.1.55.55 0 0 0 0-1.1zm-2.2 0a.55.55 0 1 0 0 1.1.55.55 0 0 0 0-1.1zm3.85-5.5v3.3H4.15v-3.3h16.5zM19 24.2a.55.55 0 1 0 0 1.1.55.55 0 0 0 0-1.1zm-2.2 0a.55.55 0 1 0 0 1.1.55.55 0 0 0 0-1.1zm-3.143-8.8v2.109H16.8L12.4 22 8 17.509h3.143V15.4h2.514zM12.4 0c3.12 0 5.706 2.28 6.206 5.27h1.669a3.683 3.683 0 0 1 3.675 3.69 3.683 3.683 0 0 1-3.675 3.69H4.525A3.683 3.683 0 0 1 .85 8.96a3.683 3.683 0 0 1 3.675-3.69h1.669C6.694 2.28 9.279 0 12.4 0z" transform="translate(13 8)"/>
  </g>
</svg>
