<svg xmlns="http://www.w3.org/2000/svg" width="52" height="52" viewBox="0 0 52 52">
  <defs>
    <linearGradient id="decentral-a" x1="0%" x2="100%" y1="-8.357%" y2="100%">
      <stop offset="0%" stop-color="#39C1CB"/>
      <stop offset="100%" stop-color="#006FEC"/>
    </linearGradient>
    <linearGradient id="decentral-b" x1="87.147%" x2="15.395%" y1="91.036%" y2="4.506%">
      <stop offset="0%" stop-color="#39C1CB" stop-opacity=".99"/>
      <stop offset="100%" stop-color="#006FEC"/>
    </linearGradient>
  </defs>
  <g fill="none" fill-rule="evenodd" transform="translate(1 1)">
    <circle cx="25" cy="25" r="25" stroke="url(#decentral-a)" stroke-width="2"/>
    <path fill="url(#decentral-b)" d="M25.128 19.554c.244.285.531.514.837.714l-4.77 5.45-.744.85a2.742 2.742 0 0 1-.522 3.58 2.75 2.75 0 0 1-3.876-.319 2.724 2.724 0 0 1-.638-1.576 2.756 2.756 0 0 1 .17-1.162c.16-.426.414-.822.786-1.137a2.741 2.741 0 0 1 3.31-.175l.73-.833zM9.761 17.38l1.03.387-1.17 3.513c.266.154.516.344.726.592.634.747.793 1.732.52 2.603l3.752 2.081c-.146.347-.25.712-.291 1.096l-3.996-2.218c-.095.11-.19.22-.303.314a2.75 2.75 0 1 1-3.557-4.193 2.731 2.731 0 0 1 2.106-.625l1.183-3.55zM7.57.653a2.75 2.75 0 0 1 3.876.318c.321.379.51.821.595 1.275l1.134.115 7.124.711c-.186.333-.316.69-.397 1.066l-6.788-.678-1.091-.11a2.722 2.722 0 0 1-.873 1.474l.445 1.036.35.82.445 1.037c.846-.08 1.71.233 2.313.913l.043.041c.237.279.403.591.512.917a2.75 2.75 0 0 1-.83 2.96 2.737 2.737 0 0 1-2.106.625l-.35 1.049-.507 1.521 4.416 1.657 1.05.394c.147-.234.318-.454.539-.64a2.738 2.738 0 0 1 3.095-.31c.288.157.556.362.781.627a2.75 2.75 0 0 1-4.194 3.557 2.763 2.763 0 0 1-.607-2.204l-1.042-.391-4.387-1.645-1.03-.387-5.07-1.9-.203-.041s-.18.198-.285.288c-.077.065-.161.11-.242.166a2.74 2.74 0 0 1-3.634-.485 2.75 2.75 0 0 1 .318-3.876 2.742 2.742 0 0 1 2.468-.56 2.73 2.73 0 0 1 1.408.878 2.7 2.7 0 0 1 .402.66 2.722 2.722 0 0 1 .206 1.546l-.059.39 5.04 1.89.488-1.467.355-1.067a2.734 2.734 0 0 1-.726-.594 2.744 2.744 0 0 1-.497-.882l-1.09.24-2.882.642-.214-1.08 2.948-.655 1.091-.242a2.738 2.738 0 0 1 1.422-2.215L10.9 7.03l-.279-.648-.434-1.013a2.75 2.75 0 0 1-2.219-.253l-.722.84-3.174 3.705a3.844 3.844 0 0 0-.97-.558l3.31-3.864.738-.859A2.742 2.742 0 0 1 7.57.653zm14.3 2.2a2.748 2.748 0 0 1 3.876.318 2.74 2.74 0 0 1-.17 3.723l.344 1.147 1.563 5.21.319 1.065a2.746 2.746 0 0 1 2.026 4.83 2.74 2.74 0 0 1-3.134.287 2.725 2.725 0 0 1-.742-.604c-.032-.038-.053-.082-.084-.121a2.743 2.743 0 0 1 .881-4.079l-.317-1.056-1.498-4.995-.319-1.064c-.398.15-.817.21-1.232.17a2.745 2.745 0 0 1-1.787-.913c-.015-.016-.031-.026-.043-.042a2.756 2.756 0 0 1-.559-2.48c.1-.381.284-.739.546-1.052a2.78 2.78 0 0 1 .33-.343zm.136 5.57c.33.156.684.257 1.052.314l-2.166 7.04a3.831 3.831 0 0 0-1.052-.314zM20.04 6.259c.124.345.304.668.528.97L16.26 9.142a3.828 3.828 0 0 0-.527-.97z" transform="translate(10 10)"/>
  </g>
</svg>
