<svg width="28" height="28" xmlns="http://www.w3.org/2000/svg">
    <defs>
        <linearGradient x1="87.147%" y1="91.036%" x2="15.395%" y2="4.506%" id="a-decentral-white">
            <stop stop-color="#f3f3f3" stop-opacity=".99" offset="0%" />
            <stop stop-color="#ffffff" offset="100%" />
        </linearGradient>
    </defs>
    <path d="M22.844 17.776c.222.26.483.467.76.65L19.27 23.38l-.677.772a2.492 2.492 0 01-.474 3.254 2.5 2.5 0 01-3.524-.289 2.476 2.476 0 01-.58-1.433 2.506 2.506 0 01.155-1.056c.145-.388.376-.748.714-1.034a2.492 2.492 0 013.009-.159l.663-.757zM8.874 15.8l.936.352-1.064 3.193c.242.14.47.313.66.539.576.679.721 1.574.473 2.366l3.411 1.892a3.507 3.507 0 00-.265.996L9.392 23.12c-.086.099-.172.199-.275.285a2.5 2.5 0 11-3.234-3.812 2.483 2.483 0 011.915-.568l1.075-3.227zM6.881.594a2.5 2.5 0 013.524.289c.292.344.464.746.541 1.159l1.032.104 6.476.647a3.48 3.48 0 00-.361.969l-6.172-.617-.992-.1a2.474 2.474 0 01-.793 1.34l.404.942.32.745.403.943a2.492 2.492 0 012.104.83c.011.014.027.024.038.038a2.5 2.5 0 01-.289 3.524 2.488 2.488 0 01-1.915.568l-.778 2.337 4.014 1.506.955.358a2.45 2.45 0 01.49-.582 2.49 2.49 0 012.814-.282c.262.143.505.33.71.57a2.5 2.5 0 11-3.813 3.234 2.512 2.512 0 01-.552-2.004l-.947-.355-3.989-1.495-.937-.352-4.608-1.727-.184-.038s-.164.18-.26.262c-.07.059-.147.1-.22.15a2.49 2.49 0 01-3.303-.44 2.5 2.5 0 01.288-3.523 2.493 2.493 0 012.245-.51 2.483 2.483 0 011.28.799c.157.185.27.389.364.6a2.474 2.474 0 01.189 1.405l-.054.355 4.58 1.718.444-1.334.324-.97a2.486 2.486 0 01-.66-.54 2.494 2.494 0 01-.452-.802l-.99.219-2.621.583-.194-.981 2.68-.596.992-.22A2.489 2.489 0 0110.3 7.306l-.39-.915-.254-.59-.395-.92a2.5 2.5 0 01-2.016-.23l-.657.764-2.885 3.368a3.495 3.495 0 00-.882-.508l3.01-3.512.67-.781A2.493 2.493 0 016.881.594zm13.001 2a2.498 2.498 0 013.523.289 2.492 2.492 0 01-.154 3.384l.312 1.043 1.421 4.736.29.968a2.496 2.496 0 011.842 4.392 2.492 2.492 0 01-2.849.26 2.477 2.477 0 01-.675-.55c-.029-.033-.048-.073-.076-.11a2.494 2.494 0 01.801-3.707l-.288-.96-1.362-4.541-.29-.967a2.489 2.489 0 01-1.12.154 2.495 2.495 0 01-1.625-.83c-.013-.014-.028-.023-.039-.038a2.506 2.506 0 01-.508-2.255c.091-.346.258-.671.496-.956.092-.11.188-.216.301-.312zm.123 5.063c.301.142.622.234.957.286l-1.969 6.4a3.483 3.483 0 00-.957-.286zm-1.788-1.968c.113.314.277.608.48.882l-3.916 1.74a3.48 3.48 0 00-.48-.882z" fill="url(#a-decentral-white)" fill-rule="evenodd" />
</svg>