<svg xmlns="http://www.w3.org/2000/svg" width="52" height="52" viewBox="0 0 52 52">
  <defs>
    <linearGradient id="effeciency-a" x1="0%" x2="100%" y1="-8.357%" y2="100%">
      <stop offset="0%" stop-color="#39C1CB"/>
      <stop offset="100%" stop-color="#006FEC"/>
    </linearGradient>
    <linearGradient id="effeciency-b" x1="87.148%" x2="15.394%" y1="91.036%" y2="4.506%">
      <stop offset="0%" stop-color="#39C1CB" stop-opacity=".99"/>
      <stop offset="100%" stop-color="#006FEC"/>
    </linearGradient>
  </defs>
  <g fill="none" fill-rule="evenodd" transform="translate(1 1)">
    <circle cx="25" cy="25" r="25" stroke="url(#effeciency-a)" stroke-width="2"/>
    <path fill="url(#effeciency-b)" d="M15 0c8.284 0 15 6.716 15 15 0 8.284-6.716 15-15 15-8.284 0-15-6.716-15-15C0 6.716 6.716 0 15 0zm4.097 21.808h-8.48a1.211 1.211 0 1 0 0 2.423h8.48a1.212 1.212 0 0 0 0-2.423zm4.819-12.065l-9.846 2.89a2.85 2.85 0 0 0-1.617 4.24 2.85 2.85 0 0 0 4.519.423l6.944-7.553zM14.5 14a1.5 1.5 0 1 1 0 3 1.5 1.5 0 0 1 0-3zm12.5-.501c-.728 0-1.304.528-1.443 1.214A.76.76 0 0 0 25.5 15c.002.1.02.195.058.286.137.686.715 1.214 1.442 1.214a1.5 1.5 0 0 0 0-3.001zm-24 0a1.5 1.5 0 0 0 0 3c.728 0 1.306-.527 1.443-1.213a.765.765 0 0 0 .058-.284c0-.1-.02-.197-.058-.29C4.304 14.028 3.728 13.5 3 13.5zm4.045-7.204a.75.75 0 1 0 .001 1.499.75.75 0 0 0-.001-1.499zm15.91 0a.75.75 0 1 0-.002 1.5.75.75 0 0 0 .002-1.5zM15 1.5A1.5 1.5 0 0 0 13.5 3c0 .727.528 1.305 1.214 1.441a.739.739 0 0 0 .573 0C15.973 4.305 16.5 3.727 16.5 3A1.5 1.5 0 0 0 15 1.5z" transform="translate(10 10)"/>
  </g>
</svg>
