<svg xmlns="http://www.w3.org/2000/svg" width="52" height="52" viewBox="0 0 52 52">
  <defs>
    <linearGradient id="gold-white-a" x1="0%" x2="100%" y1="-8.357%" y2="100%">
      <stop offset="0%" stop-color="#F3F3F3"/>
      <stop offset="100%" stop-color="#FFF"/>
    </linearGradient>
    <linearGradient id="gold-white-b" x1="87.148%" x2="15.394%" y1="86.067%" y2="10.015%">
      <stop offset="0%" stop-color="#F3F3F3"/>
      <stop offset="100%" stop-color="#FFF"/>
    </linearGradient>
  </defs>
  <g fill="none" fill-rule="evenodd" transform="translate(1 1)">
    <circle cx="25" cy="25" r="25" stroke="url(#gold-white-a)" stroke-width="2"/>
    <path fill="url(#gold-white-b)" d="M12.763 2.96a.591.591 0 0 1 .593.002l16.862 9.774c.021.013.032.036.051.051a.56.56 0 0 1 .181.225c.01.024.03.043.04.07l1.486 5.08a.594.594 0 0 1-.272.681L12.582 29.92c-.01.006-.02.004-.028.009-.01.004-.018.015-.029.021a.6.6 0 0 1-.536-.03L.295 23.1a.595.595 0 0 1-.282-.638l1.452-6.783c.009-.035.034-.063.047-.097.016-.037.03-.074.052-.106a.625.625 0 0 1 .124-.126c.023-.018.036-.045.062-.06l2.712-1.57 1.396-6.534c.009-.036.034-.065.047-.097.016-.036.03-.074.052-.107a.58.58 0 0 1 .123-.123c.022-.02.035-.048.063-.063zm7.242 16.72l-1.395.807-.692.402-.591.342-.59.342-2.474 1.432-1.117 5.218 7.521-4.358.481-.278-.045-.153-.241-.829-.857-2.925zm9.56-5.539l-.753.437-1.384.802-.337.195-2.888 1.672-.38.22-1.116 5.218 8.001-4.636-1.142-3.908zm-24.58.646l-1.758 1.018 10.513 6.131v.002l1.76-1.02-10.515-6.13zm19.414-3.602l-2.089 1.21-.59.342-.592.343-1.765 1.022-.59.342-.117.068-.105.49-.388 1.816-.262 1.222-.363 1.697.784-.453 1.448-.84.59-.342 1.76-1.019.59-.342.293-.17.298-.173.19-.11 1.575-.912.202-.117.279-.162-.045-.154-.243-.828-.86-2.93zm1.323.301l.88 3 1.156-.67.982-.568-3.018-1.762zM13.058 4.162L7.62 7.312l3.937 2.297.145.083.445.26 5.986 3.492.05-.03 1.765-1.022 1.182-.685.313-.181 2.13-1.234-5.396-3.147-.59-.344-.592-.344-3.937-2.295zm12.393 1.777l1.184 1.188-1.184 1.187-1.184-1.187 1.184-1.188zM4.143 4.75l1.184 1.188-1.184 1.188L2.96 5.939 4.143 4.75zM14.797 0l1.184 1.188-1.184 1.188-1.184-1.188L14.797 0z" transform="translate(10 9)"/>
  </g>
</svg>
