<svg xmlns="http://www.w3.org/2000/svg" width="52" height="52" viewBox="0 0 52 52">
  <defs>
    <linearGradient id="humanity-data-a" x1="0%" x2="100%" y1="-8.357%" y2="100%">
      <stop offset="0%" stop-color="#39C1CB"/>
      <stop offset="100%" stop-color="#006FEC"/>
    </linearGradient>
    <linearGradient id="humanity-data-b" x1="87.148%" x2="15.394%" y1="83.239%" y2="13.15%">
      <stop offset="0%" stop-color="#39C1CB" stop-opacity=".99"/>
      <stop offset="100%" stop-color="#006FEC"/>
    </linearGradient>
  </defs>
  <g fill="none" fill-rule="evenodd" transform="translate(1 1)">
    <circle cx="25" cy="25" r="25" stroke="url(#humanity-data-a)" stroke-width="2"/>
    <path fill="url(#humanity-data-b)" d="M1.55 15.845a.596.596 0 0 1 .61-.002l-.017-.027 9.656 5.635c.586.342 1.337.514 2.085.514.745 0 1.49-.17 2.066-.51l10.857-6.378c-.135 1.418.493 2.493.9 3.023l-.09.082-12.29 7.22c-.772.45-2.128.449-2.905-.006l-10.44-6.093a1.482 1.482 0 0 1-.733-1.279l-.004-1.642a.61.61 0 0 1 .304-.537m11.585-10.8l.877-.515c.243-.144.56-.214.877-.214.32 0 .639.071.882.214l6.187 3.61c.492.287.494.743.006 1.03l-.878.515c-.241.142-.56.214-.88.214a1.78 1.78 0 0 1-.88-.214l-6.186-3.61c-.485-.283-.488-.747-.005-1.03M1.55 10.81a.596.596 0 0 1 .61-.003l10.716 6.24c.968.563 2.161.56 3.126-.01l13.136-7.759c.542-.32.864-.889.863-1.522a1.746 1.746 0 0 0-.867-1.518l-9.867-5.8a3.184 3.184 0 0 0-3.24.01L1.166 9.21A2.38 2.38 0 0 0 0 11.264v.173l.004 1.556c.001.636.238 1.226.622 1.706a2.382 2.382 0 0 0-.626 1.6v.173l.004 1.556a2.745 2.745 0 0 0 1.355 2.366l10.44 6.092c.586.343 1.337.514 2.085.514.745 0 1.49-.17 2.066-.51l12.293-7.22c.656-.386 1.647-.802 1.032-1.57 0 0-1.523-1.43-.9-3.563.566-.381.9-.906.9-1.473-.001-.617-.385-1.194-1.052-1.585a.621.621 0 0 0-.85.23.635.635 0 0 0 .227.862c.264.153.428.343.43.496 0 .146-.158.33-.413.48l-12.29 7.219c-.772.45-2.128.45-2.905-.005l-10.44-6.093a1.482 1.482 0 0 1-.733-1.279l-.004-1.643a.61.61 0 0 1 .304-.536" transform="translate(10 11)"/>
  </g>
</svg>
