<svg xmlns="http://www.w3.org/2000/svg" width="52" height="52" viewBox="0 0 52 52">
  <defs>
    <linearGradient id="network-a" x1="87.148%" x2="15.394%" y1="91.036%" y2="4.506%">
      <stop offset="0%" stop-color="#39C1CB" stop-opacity=".99"/>
      <stop offset="100%" stop-color="#006FEC"/>
    </linearGradient>
    <linearGradient id="network-b" x1="0%" x2="100%" y1="-8.357%" y2="100%">
      <stop offset="0%" stop-color="#39C1CB"/>
      <stop offset="100%" stop-color="#006FEC"/>
    </linearGradient>
  </defs>
  <g fill="none" fill-rule="evenodd" transform="translate(1 1)">
    <path fill="url(#network-a)" d="M5.083 23.49c.399.205.798.408 1.206.583a1.801 1.801 0 0 0 2.96 1.479c.137-.116.243-.25.337-.393 1.5.354 3.034.548 4.575.548.797 0 1.595-.065 2.39-.16a19.666 19.666 0 0 0 1.573 4.131c-3.596.76-7.385.166-10.606-1.69a18.4 18.4 0 0 1-2.435-4.498zm24.558-5.232A14.935 14.935 0 0 1 19.307 29.37a18.44 18.44 0 0 1-1.563-3.995 19.685 19.685 0 0 0 9.219-4.362 20.015 20.015 0 0 0 2.678-2.755zM1.18 20.852c.742.643 1.52 1.224 2.33 1.741a19.455 19.455 0 0 0 1.417 3.506c-.477-.433-.94-.888-1.368-1.392a15.052 15.052 0 0 1-2.379-3.855zm9.71-7.237c1.882.573 3.835.88 5.797.88.065 0 .13-.009.194-.009a19.868 19.868 0 0 0-.738 3.133 1.78 1.78 0 0 0-.816.385 1.8 1.8 0 0 0-.21 2.538c.22.258.5.433.799.534.026 1.113.149 2.224.362 3.323a18.79 18.79 0 0 1-3.654.054A18.84 18.84 0 0 1 9.875 24a1.782 1.782 0 0 0-.416-.986 1.803 1.803 0 0 0-2.54-.21c-.06.052-.11.112-.163.171a18.528 18.528 0 0 1-2.203-1.132 18.608 18.608 0 0 1-.62-5.794 19.747 19.747 0 0 0 6.955-2.435zm18.275-3.563c.636 1.822.907 3.729.82 5.622a18.614 18.614 0 0 1-3.798 4.423 18.48 18.48 0 0 1-8.725 4.11 18.687 18.687 0 0 1-.347-3.148c.192-.07.377-.169.542-.31a1.798 1.798 0 0 0-.327-2.963c.172-1.14.451-2.261.833-3.355 1.49-.11 2.969-.398 4.414-.848a1.79 1.79 0 1 0 2.898-1.157 19.7 19.7 0 0 0 3.69-2.374zM2.728 16.208c-.06 1.553.045 3.11.348 4.645a18.693 18.693 0 0 1-2.674-2.426A14.98 14.98 0 0 1 .06 16.27c.273.012.543.034.818.034.614 0 1.231-.04 1.85-.096zm-.883-8.4a19.83 19.83 0 0 0 2.157 2.08 19.874 19.874 0 0 0-1.196 5.1A18.79 18.79 0 0 1 0 15.067a15.013 15.013 0 0 1 1.845-7.26zM5 10.689a19.584 19.584 0 0 0 4.35 2.38 18.515 18.515 0 0 1-5.314 1.747c.165-1.404.484-2.788.964-4.127zM20.217.936a14.88 14.88 0 0 1 4.855 2.954c-.751.479-1.487.993-2.185 1.585a19.692 19.692 0 0 0-5.593 7.807 18.77 18.77 0 0 1-2.145-.042 18.85 18.85 0 0 1-2.906-.49A19.743 19.743 0 0 0 20.217.936zm5.727 3.818c.17.18.346.349.508.54a14.971 14.971 0 0 1 2.255 3.596 18.752 18.752 0 0 1-3.496 2.327c-.043-.071-.086-.142-.141-.207a1.803 1.803 0 0 0-2.54-.208 1.799 1.799 0 0 0-.591 1.734 18.48 18.48 0 0 1-3.294.658 18.474 18.474 0 0 1 5.018-6.804 18.628 18.628 0 0 1 2.281-1.636zM14.897 0a15.12 15.12 0 0 1 4.175.555 18.528 18.528 0 0 1-3.436 7.33 18.6 18.6 0 0 1-4.927 4.422 18.385 18.385 0 0 1-5.249-2.77c.247-.568.526-1.125.83-1.672.585.204 1.254.11 1.758-.319.758-.64.851-1.771.215-2.53.663-.786 1.38-1.54 2.19-2.227A18.577 18.577 0 0 1 14.897 0zm-3.144.356c-.713.462-1.411.955-2.076 1.518A19.8 19.8 0 0 0 7.202 4.41a1.792 1.792 0 0 0-1.482.39 1.796 1.796 0 0 0-.374 2.302 19.57 19.57 0 0 0-.848 1.648 18.747 18.747 0 0 1-2.016-2.01 15.023 15.023 0 0 1 2.812-3.182 14.97 14.97 0 0 1 6.46-3.201z" transform="translate(10 10)"/>
    <circle cx="25" cy="25" r="25" stroke="url(#network-b)" stroke-width="2"/>
  </g>
</svg>
