<svg xmlns="http://www.w3.org/2000/svg" width="52" height="52" viewBox="0 0 52 52">
  <defs>
    <linearGradient id="open-source-a" x1="0%" x2="100%" y1="-8.357%" y2="100%">
      <stop offset="0%" stop-color="#39C1CB"/>
      <stop offset="100%" stop-color="#006FEC"/>
    </linearGradient>
    <linearGradient id="open-source-b" x1="87.148%" x2="15.394%" y1="91.036%" y2="4.506%">
      <stop offset="0%" stop-color="#39C1CB" stop-opacity=".99"/>
      <stop offset="100%" stop-color="#006FEC"/>
    </linearGradient>
  </defs>
  <g fill="none" fill-rule="evenodd" transform="translate(1 1)">
    <circle cx="25" cy="25" r="25" stroke="url(#open-source-a)" stroke-width="2"/>
    <path fill="url(#open-source-b)" d="M23.845 0a3.974 3.974 0 0 1 3.974 3.974v19.871a3.974 3.974 0 0 1-3.974 3.974H3.975A3.974 3.974 0 0 1 0 23.845V3.975A3.974 3.974 0 0 1 3.974 0zm0 .994H3.975a2.984 2.984 0 0 0-2.981 2.98v19.871a2.984 2.984 0 0 0 2.98 2.98h19.871a2.984 2.984 0 0 0 2.98-2.98V3.975a2.984 2.984 0 0 0-2.98-2.981zM13.91 3.477c5.76 0 10.432 4.67 10.432 10.432 0 5.762-4.671 10.433-10.432 10.433-1.993 0-3.85-.569-5.434-1.54l2.18-3.27c.45-.675.36-1.582-.213-2.155a1.712 1.712 0 0 0-2.156-.214l-3.27 2.18c.173.284.36.558.558.822l-1.861 1.241a1.94 1.94 0 0 0-.857 1.428 1.935 1.935 0 0 0 .56 1.568 1.93 1.93 0 0 0 1.569.561 1.941 1.941 0 0 0 1.427-.857l1.241-1.862a10.467 10.467 0 0 1-2.08-2.08l3.264-2.174a.715.715 0 0 1 .992.992l-2.176 3.262c.266.2.539.385.822.56L7.24 24.656a2.929 2.929 0 0 1-2.449 1.31c-.777 0-1.52-.306-2.077-.863a2.925 2.925 0 0 1-.846-2.368 2.924 2.924 0 0 1 1.296-2.156l1.852-1.236a10.383 10.383 0 0 1-1.538-5.435c0-5.761 4.67-10.432 10.432-10.432zm8.736 19.169a.992.992 0 1 1 1.405 1.405.992.992 0 1 1-1.405-1.405zm-18.877 0a.992.992 0 1 1 1.404 1.405.992.992 0 1 1-1.404-1.405zM13.91 9.438a4.428 4.428 0 0 0-4.428 4.429c0 1.733 1.005 3.219 2.456 3.945l1.222-3.664a1.469 1.469 0 0 1-.726-1.265 1.476 1.476 0 1 1 2.951 0 1.47 1.47 0 0 1-.725 1.265l1.221 3.664c1.45-.726 2.457-2.212 2.457-3.945a4.428 4.428 0 0 0-4.428-4.429zM3.77 3.768a.992.992 0 1 1 1.404 1.405A.992.992 0 1 1 3.77 3.77zm18.877 0a.992.992 0 1 1 1.405 1.405.992.992 0 1 1-1.405-1.404z" transform="translate(11 11)"/>
  </g>
</svg>
