<svg width="28" height="28" xmlns="http://www.w3.org/2000/svg">
    <defs>
        <linearGradient x1="27.839%" y1="1.794%" x2="76.259%" y2="97.437%" id="a-smart-white">
            <stop stop-color="#f3f3f3" offset="0%" />
            <stop stop-color="#ffffff" offset="100%" />
        </linearGradient>
        <linearGradient x1="10.602%" y1="37.949%" x2="96.683%" y2="61.859%" id="b-smart-white">
            <stop stop-color="#f3f3f3" offset="0%" />
            <stop stop-color="#ffffff" offset="100%" />
        </linearGradient>
        <linearGradient x1="10.602%" y1="48.661%" x2="96.683%" y2="51.318%" id="d-smart-white">
            <stop stop-color="#f3f3f3" offset="0%" />
            <stop stop-color="#ffffff" offset="100%" />
        </linearGradient>
        <linearGradient x1="10.602%" y1="3.167%" x2="96.683%" y2="96.086%" id="e-smart-white">
            <stop stop-color="#f3f3f3" offset="0%" />
            <stop stop-color="#ffffff" offset="100%" />
        </linearGradient>
        <linearGradient x1="10.602%" y1="3.141%" x2="96.683%" y2="96.112%" id="f-smart-white">
            <stop stop-color="#f3f3f3" offset="0%" />
            <stop stop-color="#ffffff" offset="100%" />
        </linearGradient>
        <path id="c" d="M0 26h18V0H0z" />
    </defs>
    <g fill-rule="nonzero" fill="none">
        <path d="M16 2h-2v1c0 .173-.028.84-.07 1h2.005v19.852H2.065V4h2.006C4.029 3.84 4 3.173 4 3V2H2a2 2 0 00-2 2v20a2 2 0 002 2h14a2 2 0 002-2V4a2 2 0 00-2-2" fill="url(#a-smart-white)" transform="translate(5 1)" />
        <path d="M6 4h6a.99.99 0 00.848-.5A.976.976 0 0013 3V2h-2a2 2 0 00-4 0H5v1c0 .186.065.351.153.5A.99.99 0 006 4" fill="url(#b-smart-white)" transform="translate(5 1)" />
        <path fill="url(#d-smart-white)" d="M3 9h6V8H3zM3 15h6v-1H3zM3 21h6v-1H3z" transform="translate(5 1)" />
        <path fill="url(#e-smart-white)" d="M10.89 7.13l1.55 2.769h1.152l.852-1.435-.73-.73-.698 1.165-1.392-2.504z" transform="translate(5 1)" />
        <path fill="url(#f-smart-white)" d="M13.714 13.735l-.698 1.164-1.392-2.504-.735.735 1.551 2.768h1.152l.851-1.434zM11.625 18.394l-.735.735 1.55 2.77h1.153l.85-1.436-.728-.729-.698 1.164z" transform="translate(5 1)" />
    </g>
</svg>