<svg xmlns="http://www.w3.org/2000/svg" width="52" height="52" viewBox="0 0 52 52">
  <defs>
    <linearGradient id="smart-contract-a" x1="0%" x2="100%" y1="-8.357%" y2="100%">
      <stop offset="0%" stop-color="#39C1CB"/>
      <stop offset="100%" stop-color="#006FEC"/>
    </linearGradient>
    <linearGradient id="smart-contract-b" x1="27.839%" x2="76.259%" y1="1.794%" y2="97.437%">
      <stop offset="0%" stop-color="#0374EA"/>
      <stop offset="100%" stop-color="#3BC2CC"/>
    </linearGradient>
    <linearGradient id="smart-contract-c" x1="10.602%" x2="96.683%" y1="37.949%" y2="61.859%">
      <stop offset="0%" stop-color="#0374EA"/>
      <stop offset="100%" stop-color="#3BC2CC"/>
    </linearGradient>
    <linearGradient id="smart-contract-d" x1="10.602%" x2="96.683%" y1="48.661%" y2="51.318%">
      <stop offset="0%" stop-color="#0374EA"/>
      <stop offset="100%" stop-color="#3BC2CC"/>
    </linearGradient>
    <linearGradient id="smart-contract-e" x1="10.602%" x2="96.683%" y1="3.167%" y2="96.086%">
      <stop offset="0%" stop-color="#0374EA"/>
      <stop offset="100%" stop-color="#3BC2CC"/>
    </linearGradient>
    <linearGradient id="smart-contract-f" x1="10.602%" x2="96.683%" y1="3.141%" y2="96.112%">
      <stop offset="0%" stop-color="#0374EA"/>
      <stop offset="100%" stop-color="#3BC2CC"/>
    </linearGradient>
  </defs>
  <g fill="none" fill-rule="evenodd" transform="translate(1 1)">
    <circle cx="25" cy="25" r="25" stroke="url(#smart-contract-a)" stroke-width="2"/>
    <g transform="translate(15.5 10.1)">
      <path fill="url(#smart-contract-b)" fill-rule="nonzero" d="M17.6 2.2h-2.2v1.1c0 .19-.031.923-.077 1.1h2.205v21.837H2.272V4.4h2.206C4.43 4.223 4.4 3.49 4.4 3.3V2.2H2.2A2.2 2.2 0 0 0 0 4.4v22a2.2 2.2 0 0 0 2.2 2.2h15.4a2.2 2.2 0 0 0 2.2-2.2v-22a2.2 2.2 0 0 0-2.2-2.2"/>
      <path fill="url(#smart-contract-c)" fill-rule="nonzero" d="M6.6 4.4h6.6c.402 0 .74-.228.932-.55.097-.164.168-.345.168-.55V2.2h-2.2a2.2 2.2 0 0 0-4.4 0H5.5v1.1c0 .205.071.386.168.55.192.322.53.55.932.55"/>
      <path fill="url(#smart-contract-d)" fill-rule="nonzero" d="M3.3 9.9h6.6V8.8H3.3zm0 6.6h6.6v-1.1H3.3zm0 6.6h6.6V22H3.3z"/>
      <path fill="url(#smart-contract-e)" fill-rule="nonzero" d="M11.978 7.842l1.706 3.046h1.267l.938-1.578-.803-.802-.768 1.28-1.531-2.754z"/>
      <path fill="url(#smart-contract-f)" fill-rule="nonzero" d="M15.086 15.108l-.768 1.28-1.531-2.754-.809.808 1.706 3.046h1.268l.936-1.578zm-2.299 5.126l-.808.808 1.705 3.046h1.268l.936-1.578-.802-.802-.768 1.28z"/>
    </g>
  </g>
</svg>
