<svg xmlns="http://www.w3.org/2000/svg" width="52" height="52" viewBox="0 0 52 52">
  <defs>
    <linearGradient id="timestamp-white-a" x1="0%" x2="100%" y1="-8.357%" y2="100%">
      <stop offset="0%" stop-color="#F3F3F3"/>
      <stop offset="100%" stop-color="#FFF"/>
    </linearGradient>
    <linearGradient id="timestamp-white-b" x1="87.148%" x2="15.394%" y1="78.282%" y2="18.645%">
      <stop offset="0%" stop-color="#F3F3F3"/>
      <stop offset="100%" stop-color="#FFF"/>
    </linearGradient>
  </defs>
  <g fill="none" fill-rule="evenodd" transform="translate(1 1)">
    <circle cx="25" cy="25" r="25" stroke="url(#timestamp-white-a)" stroke-width="2"/>
    <path fill="url(#timestamp-white-b)" d="M7.7 11.2a7.7 7.7 0 1 1 0 15.4 7.7 7.7 0 0 1 0-15.4zM31.8 20v2.2H17.5V20h14.3zm-23-6.6H6.6V20h5.5v-2.2H8.8v-4.4zM23.825.2a3.817 3.817 0 0 1 3.801 4.16l-.023.196L26.026 15.6H31.8v2.2H17.5v-2.2h4.125L20.047 4.556A3.817 3.817 0 0 1 23.825.2zM13.2 4.6v5.5h-1.1V4.6h1.1zM3.3 3.5v6.6H2.2V3.5h1.1zM8.8.2V9H7.7V.2h1.1z" transform="translate(9 11)"/>
  </g>
</svg>
