<?xml version="1.0" encoding="utf-8"?>
<!-- Generator: Adobe Illustrator 24.0.0, SVG Export Plug-In . SVG Version: 6.00 Build 0)  -->
<svg version="1.1" id="Layer_1" xmlns="http://www.w3.org/2000/svg" xmlns:xlink="http://www.w3.org/1999/xlink" x="0px" y="0px"
	 viewBox="0 0 50 50" style="enable-background:new 0 0 50 50;" xml:space="preserve">
<style type="text/css">
	.st0{fill:#3B91F7;}
	.st1{fill:#FFFFFF;}
</style>
<g>
	<g>
		<path class="st0" d="M25,0.6C11.5,0.6,0.6,11.5,0.6,25S11.5,49.4,25,49.4S49.4,38.5,49.4,25S38.5,0.6,25,0.6z"/>
	</g>
	<g>
		<path class="st1" d="M19.4,14.6c1.4-1.5,3.3-2.2,5.7-2.2c2.3,0,4.1,0.6,5.4,1.9c1.4,1.3,2,2.9,2,4.9c0,1.2-0.2,2.2-0.7,2.9
			s-1.5,1.8-3,3.3c-1.1,1-1.8,1.9-2.2,2.7c-0.3,0.7-0.5,1.8-0.5,3.2h-3c0-1.6,0.2-2.9,0.6-3.9c0.4-1,1.2-2.1,2.6-3.4l1.4-1.3
			c0.4-0.4,0.8-0.8,1-1.2c0.5-0.7,0.7-1.5,0.7-2.3c0-1.1-0.3-2.1-1-2.9c-0.7-0.8-1.8-1.2-3.3-1.2c-1.9,0-3.3,0.7-4,2.1
			c-0.4,0.8-0.7,1.9-0.7,3.4h-3C17.4,18.1,18.1,16.1,19.4,14.6z M23.1,34.1h3.4v3.5h-3.4V34.1z"/>
	</g>
</g>
</svg>
