<svg enable-background="new 0 0 50 50" viewBox="0 0 50 50" xmlns="http://www.w3.org/2000/svg" xmlns:xlink="http://www.w3.org/1999/xlink"><linearGradient id="a" gradientUnits="userSpaceOnUse" x1="25.3965" x2="24.8284" y1="24.4907" y2="34.6029"><stop offset="0" stop-color="#fff"/><stop offset="1" stop-color="#b6b6b6"/></linearGradient><circle cx="25" cy="25" fill="#fa0" r="25"/><path d="m10.87 30.8 3.52-14.21c.39-1.25 1.54-2.1 2.85-2.1h15.53c1.31 0 2.46.85 2.85 2.1l3.52 14.21" fill="#fff"/><path d="m36.13 34.72h-22.26c-1.71 0-3.1-1.39-3.1-3.1v-.15c0-1.71 1.39-3.1 3.1-3.1h22.26c1.71 0 3.1 1.39 3.1 3.1v.15c0 1.71-1.39 3.1-3.1 3.1z" fill="url(#a)"/><circle cx="35.84" cy="31.55" r="1.22"/><circle cx="31.74" cy="31.55" r="1.22"/><circle cx="27.64" cy="31.55" r="1.22"/></svg>