<svg enable-background="new 0 0 50 50" viewBox="0 0 50 50" xmlns="http://www.w3.org/2000/svg" xmlns:xlink="http://www.w3.org/1999/xlink"><linearGradient id="a" gradientUnits="userSpaceOnUse" x1="25.5065" x2="24.9412" y1="24.3708" y2="34.4318"><stop offset="0" stop-color="#fff"/><stop offset="1" stop-color="#cbcbca"/></linearGradient><ellipse cx="25.11" cy="24.88" fill="#0190ff" rx="24.89" ry="24.88"/><path d="m11.04 30.65 3.5-14.14c.39-1.24 1.54-2.08 2.84-2.08h15.46c1.3 0 2.45.84 2.84 2.08l3.5 14.14" fill="#fff"/><path d="m36.18 34.55h-22.13c-1.71 0-3.1-1.39-3.1-3.1v-.12c0-1.71 1.39-3.1 3.1-3.1h22.13c1.71 0 3.1 1.39 3.1 3.1v.12c-.01 1.71-1.39 3.1-3.1 3.1z" fill="url(#a)"/><circle cx="35.91" cy="31.39" r="1.21"/><circle cx="31.83" cy="31.39" r="1.21"/><circle cx="27.75" cy="31.39" r="1.21"/></svg>