<svg viewBox="0 0 40 40" width="40" height="40" xmlns="http://www.w3.org/2000/svg" xmlns:xlink="http://www.w3.org/1999/xlink">
    <defs>
        <circle id="a-github" cx="20" cy="20" r="20" />
        <path d="M10 .611c-5.521 0-10 4.361-10 9.74 0 4.304 2.865 7.954 6.839 9.243.5.09.661-.212.661-.468v-1.813c-2.782.589-3.36-1.15-3.36-1.15-.455-1.126-1.111-1.426-1.111-1.426-.908-.604.069-.591.069-.591 1.004.068 1.532 1.003 1.532 1.003.892 1.489 2.34 1.06 2.91.81.09-.629.349-1.059.635-1.302-2.22-.247-4.555-1.083-4.555-4.813 0-1.065.39-1.933 1.03-2.615-.104-.246-.446-1.237.097-2.578 0 0 .84-.261 2.75.999A9.819 9.819 0 0110 5.32c.85.005 1.705.112 2.505.329 1.909-1.26 2.747-.999 2.747-.999.544 1.342.201 2.333.099 2.578a3.704 3.704 0 011.029 2.615c0 3.74-2.34 4.564-4.565 4.805.357.302.685.895.685 1.803v2.674c0 .259.16.563.667.467 3.97-1.29 6.833-4.94 6.833-9.242 0-5.379-4.478-9.74-10-9.74" id="c-github" />
    </defs>
    <g fill="none" fill-rule="evenodd">
        <g>
            <mask id="b-github" fill="#fff">
                <use xlink:href="#a-github" />
            </mask>
            <use fill="#D8D8D8" fill-rule="nonzero" xlink:href="#a-github" />
            <g mask="url(#b-github)" fill="#0090ff" fill-rule="nonzero">
                <path d="M-1.455 0h42v41h-42z" />
            </g>
            <g mask="url(#b-github)">
                <g transform="translate(10 10)">
                    <mask id="d-github" fill="#fff">
                        <use xlink:href="#c-github" />
                    </mask>
                    <use fill="#0090ff" xlink:href="#c-github" />
                    <g mask="url(#d-github)" fill-rule="nonzero">
                        <path fill="#FFF" d="M0 0h20v20H0z" />
                    </g>
                </g>
            </g>
        </g>
    </g>
</svg>