<svg viewBox="0 0 40 40" width="40" height="40" xmlns="http://www.w3.org/2000/svg" xmlns:xlink="http://www.w3.org/1999/xlink">
    <defs>
        <path id="c-wechat" d="M0 .829h13.836v13.46H0z" />
        <path id="e-wechat" d="M.048.158h11.866V11H.048z" />
        <circle id="a-wechat" cx="20" cy="20" r="20" />
    </defs>
    <g fill="none" fill-rule="evenodd">
        <mask id="b-wechat" fill="#fff">
            <use xlink:href="#a-wechat" />
        </mask>
        <use fill="#D8D8D8" fill-rule="nonzero" xlink:href="#a-wechat" />
        <g mask="url(#b-wechat)" fill="#0090FF" fill-rule="nonzero">
            <path d="M-1.455 0h42v41h-42z" />
        </g>
        <g mask="url(#b-wechat)">
            <g transform="translate(10 11.171)">
                <mask id="d-wechat" fill="#fff">
                    <use xlink:href="#c-wechat" />
                </mask>
                <path d="M9.767 4.87c-.456.009-.841.397-.833.84a.831.831 0 00.855.814.817.817 0 00.822-.838.821.821 0 00-.844-.815m-4.44.853c.018-.442-.364-.84-.82-.853a.827.827 0 00-.86.8.817.817 0 00.81.849.841.841 0 00.87-.796m8.509.752c-1.85.096-3.456.657-4.761 1.923-1.32 1.279-1.921 2.847-1.756 4.79-.723-.09-1.381-.19-2.043-.244-.228-.02-.5.008-.693.117-.643.362-1.26.772-1.99 1.228.135-.605.22-1.136.375-1.647.113-.375.06-.584-.285-.828C.463 10.248-.471 7.904.228 5.49c.648-2.233 2.239-3.588 4.4-4.294 2.95-.963 6.264.02 8.058 2.362a5.514 5.514 0 011.15 2.918" fill="#FEFEFE" mask="url(#d-wechat)" />
            </g>
            <g transform="translate(18 18.171)">
                <mask id="f-wechat" fill="#fff">
                    <use xlink:href="#e-wechat" />
                </mask>
                <path d="M7.62 3.173a.69.69 0 00-.683.659.678.678 0 00.675.712.672.672 0 00.684-.653.686.686 0 00-.675-.718M3.326 4.549a.689.689 0 10.005-1.377.701.701 0 00-.697.713.696.696 0 00.692.664m6.663 6.45c-.585-.26-1.122-.65-1.694-.711-.57-.058-1.168.27-1.764.33-1.814.187-3.44-.32-4.781-1.56C-.8 6.7-.436 3.085 2.515 1.153 5.137-.566 8.98.006 10.83 2.39c1.613 2.08 1.423 4.84-.546 6.588-.57.506-.775.922-.41 1.588.068.123.076.279.115.434" fill="#FEFEFE" mask="url(#f-wechat)" />
            </g>
        </g>
    </g>
</svg>