<svg viewBox="0 0 40 40" width="40" height="40" xmlns="http://www.w3.org/2000/svg" xmlns:xlink="http://www.w3.org/1999/xlink">
    <defs>
        <circle id="a-twitter" cx="20" cy="20" r="20" />
        <path d="M19.727 4.237a7.55 7.55 0 01-2.239.635 4.023 4.023 0 001.714-2.234 7.641 7.641 0 01-2.475.98 3.834 3.834 0 00-2.845-1.276c-2.153 0-3.898 1.809-3.898 4.04 0 .316.034.624.101.92-3.24-.168-6.112-1.777-8.035-4.22a4.125 4.125 0 00-.528 2.031c0 1.401.688 2.638 1.735 3.362a3.773 3.773 0 01-1.766-.506l-.001.052c0 1.957 1.343 3.589 3.127 3.96a3.821 3.821 0 01-1.76.07c.496 1.604 1.935 2.773 3.64 2.805a7.647 7.647 0 01-5.77 1.673 10.754 10.754 0 005.975 1.814c7.17 0 11.091-6.155 11.091-11.493 0-.175-.003-.35-.01-.523a8.067 8.067 0 001.944-2.09" id="c-twitter" />
    </defs>
    <g fill="none" fill-rule="evenodd">
        <g>
            <mask id="b-twitter" fill="#fff">
                <use xlink:href="#a-twitter" />
            </mask>
            <use fill="#D8D8D8" fill-rule="nonzero" xlink:href="#a-twitter" />
            <g mask="url(#b-twitter)" fill="#0090ff" fill-rule="nonzero">
                <path d="M-1.455 0h42v41h-42z" />
            </g>
            <g mask="url(#b-twitter)">
                <g transform="translate(10 10)">
                    <mask id="d-twitter" fill="#fff">
                        <use xlink:href="#c-twitter" />
                    </mask>
                    <use fill="#0090ff" xlink:href="#c-twitter" />
                    <g mask="url(#d-twitter)" fill-rule="nonzero">
                        <path fill="#FFF" d="M0 0h28v28H0z" />
                    </g>
                </g>
            </g>
        </g>
    </g>
</svg>