<?xml version="1.0" encoding="utf-8"?>
<!-- Generator: Adobe Illustrator 25.1.0, SVG Export Plug-In . SVG Version: 6.00 Build 0)  -->
<svg version="1.1" id="Layer_1" xmlns="http://www.w3.org/2000/svg" xmlns:xlink="http://www.w3.org/1999/xlink" x="0px" y="0px"
	 viewBox="0 0 1600 900" style="enable-background:new 0 0 1600 900;" xml:space="preserve">
<style type="text/css">
	.st0{display:none;clip-path:url(#SVGID_5_);fill:url(#SVGID_6_);}
	.st1{opacity:0.3;clip-path:url(#SVGID_8_);}
	.st2{fill:none;stroke:#FFFFFF;stroke-width:4;stroke-miterlimit:10;}
	.st3{fill:#FFFFFF;}
	.st4{opacity:0.8;fill:#CFC5FB;}
	.st5{opacity:0.8;fill:#CEB0FA;}
	.st6{opacity:0.8;fill:#80A7F8;}
	.st7{opacity:0.8;}
	.st8{fill:#A6FCF6;}
	.st9{opacity:0.8;fill:#82A9F7;}
	.st10{fill:#FFFFFF;stroke:#FFFFFF;stroke-width:3;stroke-miterlimit:10;}
	.st11{fill:#E4E4FF;stroke:#FFFFFF;stroke-width:3;stroke-miterlimit:10;}
	.st12{fill:#E4E4FF;}
</style>
<g>
	<defs>
		<rect id="SVGID_1_" width="1600" height="900"/>
	</defs>
	<clipPath id="SVGID_2_">
		<use xlink:href="#SVGID_1_"  style="overflow:visible;"/>
	</clipPath>
</g>
<g>
	<defs>
		<path id="SVGID_3_" d="M1600,900H0V0h1600V900z M735.8,596.2l177.5,250.2l172.8-255.7L913.3,692.6L735.8,596.2z"/>
	</defs>
	<linearGradient id="SVGID_4_" gradientUnits="userSpaceOnUse" x1="1230.2991" y1="314.5195" x2="-295.8435" y2="795.0283">
		<stop  offset="1.584617e-02" style="stop-color:#008BF5"/>
		<stop  offset="0.6366" style="stop-color:#0072C9"/>
	</linearGradient>
	<use xlink:href="#SVGID_3_"  style="overflow:visible;fill:url(#SVGID_4_);"/>
	<clipPath id="SVGID_5_">
		<use xlink:href="#SVGID_3_"  style="overflow:visible;"/>
	</clipPath>
	<radialGradient id="SVGID_6_" cx="1182.765" cy="300.1831" r="1036.2046" gradientUnits="userSpaceOnUse">
		<stop  offset="0.1996" style="stop-color:#FFFFFF"/>
		<stop  offset="1" style="stop-color:#000000"/>
	</radialGradient>
	<path class="st0" d="M1954.5,756.2l3.8-4.7L1154.4,96.1l-0.8-0.6L591.1,78.1L38-81.8l-1.7,5.8L588.5,83.6l0,0.4l1.6,0.1
		l630.7,182.3l-97.1,586.2l-106.2-121.4l152.4-464.1l1-3.1L-148.7-49.1l-1.4,5.8l921.3,218.6l-1233.3,25l0.1,6l990.4-20.1
		l-905.1,549.6l3.1,5.1l908.7-551.8l211.8,242.1l-117.4,719.1l5.9,1l116.6-714.2l258.6,295.5l-89.3,272l5.7,1.9l88.2-268.6
		l107.1,122.4l-24.9,150.5l5.9,1l24.1-145.7l55.2,63.1l4.5-4l-58.4-66.8l98.3-593.7l0.4-2.6L614.3,84.8l537.1,16.6L1954.5,756.2z
		 M540.4,186l247.5-5l-39.6,242.6L540.4,186z M753.4,429.5L794,180.7l369.1,87.6L1012.9,726L753.4,429.5z"/>
</g>
<g>
	<defs>
		<path id="SVGID_7_" d="M1600,900H0V0h1600V900z M735.8,596.2l177.5,250.2l172.8-255.7L913.3,692.6L735.8,596.2z"/>
	</defs>
	<clipPath id="SVGID_8_">
		<use xlink:href="#SVGID_7_"  style="overflow:visible;"/>
	</clipPath>
	<g class="st1">
		<line class="st2" x1="1154.5" y1="559.7" x2="1100.5" y2="1011.3"/>
		<line class="st2" x1="37.2" y1="-78.9" x2="943.4" y2="213.5"/>
		<line class="st2" x1="1356.1" y1="431.5" x2="1185" y2="927.2"/>
		<line class="st2" x1="-149.3" y1="-46.2" x2="931" y2="237.4"/>
		<polyline class="st2" points="-461.9,203.4 708.4,178 632.6,1150.9 		"/>
		<circle class="st3" cx="708.3" cy="178.9" r="7.6"/>
		<line class="st2" x1="1004.3" y1="736.4" x2="1185" y2="927.2"/>
		<polyline class="st2" points="-375,738.4 483.1,181.5 756,473.9 		"/>
		<circle class="st3" cx="1118.3" cy="856.9" r="7.6"/>
		<circle class="st3" cx="1004.3" cy="736.4" r="7.6"/>
		<circle class="st3" cx="756.3" cy="474.4" r="7.6"/>
		<circle class="st3" cx="1096.3" cy="556.4" r="7.6"/>
		<circle class="st3" cx="900.3" cy="232.4" r="7.6"/>
		<circle class="st3" cx="1153.6" cy="561.7" r="7.6"/>
		<circle class="st3" cx="1355.3" cy="431.4" r="7.6"/>
		<circle class="st3" cx="1055.4" cy="114.7" r="7.6"/>
		<circle class="st3" cx="943.1" cy="212.5" r="7.6"/>
		<circle class="st3" cx="929.6" cy="237.4" r="7.6"/>
		<circle class="st3" cx="482.3" cy="182.9" r="7.6"/>
		<circle class="st3" cx="690.3" cy="402.9" r="7.6"/>
		<line class="st2" x1="1355" y1="429.6" x2="1690.7" y2="783"/>
		<line class="st2" x1="486.3" y1="62.9" x2="1055.7" y2="113.7"/>
		<circle class="st2" cx="1146.2" cy="327.6" r="232.8"/>
		<path class="st2" d="M1097.2,555.9l15.8,25.7L901.5,878.3L690.6,583.1l209.9-347.3l20.8,33.9"/>
		<circle class="st3" cx="486.3" cy="62.9" r="7.6"/>
	</g>
</g>
<polygon class="st4" points="736.7,562.5 913.3,269.9 913.3,481.7 "/>
<polyline class="st5" points="1089.9,562.5 913.3,667.2 913.3,481.7 1089.9,562.5 "/>
<polygon class="st6" points="913.3,702 735.8,596.2 913.3,846.5 "/>
<g class="st7">
	<polygon class="st8" points="1089.9,562.5 913.3,269.9 913.3,481.7 	"/>
</g>
<polyline class="st9" points="736.7,562.5 913.3,667.2 913.3,481.7 736.7,562.5 "/>
<polyline class="st5" points="913.3,846.5 1086.1,600.1 913.3,702 "/>
<g>
	<defs>
		<circle id="SVGID_9_" cx="1142.2" cy="327.6" r="212.4"/>
	</defs>
	<use xlink:href="#SVGID_9_"  style="overflow:visible;fill:#0090FF;"/>
	<clipPath id="SVGID_10_">
		<use xlink:href="#SVGID_9_"  style="overflow:visible;"/>
	</clipPath>
</g>
<rect x="812.3" y="512.7" transform="matrix(0.504 -0.8637 0.8637 0.504 -127.676 1007.3483)" class="st10" width="2" height="204.3"/>
<path class="st10" d="M919,657.2l-1-1.7l157.9-92.2l-174.8-79.8l0.8-1.8l176.5,80.6c0.4,0.1,0.5,0.5,0.5,0.8c0,0.4-0.1,0.7-0.5,0.9
	L919,657.2z"/>
<rect x="988.7" y="246.3" transform="matrix(0.8562 -0.5166 0.5166 0.8562 -73.1821 571.2758)" class="st3" width="2" height="341.6"/>
<path class="st10" d="M901.5,846.5c-0.3,0-0.7-0.1-0.8-0.4L724.2,597.4c-0.3-0.4-0.3-0.9,0.1-1.2c0.3-0.4,0.8-0.4,1.2-0.1l176,104.2
	l176-104.2c0.4-0.3,0.9-0.1,1.2,0.1c0.3,0.3,0.4,0.9,0.1,1.2L902.4,846.1c-0.1,0.1-0.3,0.3-0.5,0.4
	C901.7,846.5,901.6,846.5,901.5,846.5z M728.5,600l172.1,242.3V701.8L728.5,600z M902.5,702v140.5l172.1-242.3L902.5,702z"/>
<g>
	
		<rect x="988.7" y="246.3" transform="matrix(0.8562 -0.5166 0.5166 0.8562 -73.1821 571.2758)" class="st11" width="2" height="341.6"/>
</g>
<path class="st10" d="M1088,470.2c-0.5,0-1.2,0-1.7-0.1c-4.3-0.5-8.2-3.1-11.3-7.4c-0.8-1-1.4-2.1-2.1-3.1c-1.8-2.9-3.8-5.7-6.2-7.5
	c-2.5-1.8-7.8-2.7-9.1-1.6c-2.6,2.1-4.6,6.8-4.3,10.3l-2,0.1c-0.3-4.2,2-9.5,5.1-12c2.5-2,8.8-0.5,11.6,1.6c2.7,2.1,4.8,5.1,6.6,8.1
	c0.7,1,1.3,2.1,2.1,3.1c2.7,3.9,6.2,6.2,10,6.6c3.8,0.5,7.7-0.9,11.4-4c8.2-6.9,13.8-16.6,17.4-30.7c4.7-17.9,9-36.3,13-54.1
	c1.6-6.6,3-13.3,4.6-19.8c0.1-0.5,0.1-1.3,0-2.2c0-0.4,0-0.7,0-1l-54-8.2c-0.5-0.1-0.9-0.5-0.8-1l2.1-15.9c0-0.3,0.1-0.5,0.4-0.7
	c0.3-0.1,0.5-0.3,0.8-0.1l55.7,7.8l7.3-30.4l-58.1-9c-0.5-0.1-0.9-0.5-0.8-1l2.1-16.1c0-0.3,0.1-0.5,0.4-0.7
	c0.3-0.1,0.5-0.3,0.8-0.1c18.6,2.7,36.7,5.3,55.3,8.1l4.4,0.7c0.4-1.6,0.9-3.3,1.3-4.8c1-3.9,2.1-7.7,3.3-11.4l1-3.6
	c5.2-17.3,10.5-35.2,21.6-50.5c13.7-18.7,29.7-27.3,49-26.5c11.3,0.5,19.6,4,25.7,10.9l0.5,0.5c1.4,1.6,3.1,3.5,3,5.3
	c0,0.5,0,1-0.1,1.6c-0.1,4.2-0.4,8.8-2.9,11.2c-4.4,4.2-10.7,2-14.6-2c-2.5-2.3-4.4-5.2-6.4-7.9c-0.5-0.7-1-1.4-1.4-2.1
	c-3-4-6.9-6.4-10.9-6.6c-3.8-0.3-7.3,1.3-10.1,4.3c-6.5,6.8-10.8,13.3-12.7,19.1c-5.1,15.6-9.4,31.2-13.9,47.7
	c-1.7,6.1-3.4,12.4-5.2,18.6l55.8,8.3c0.3,0,0.5,0.3,0.7,0.4s0.3,0.5,0.1,0.8l-4.4,15.9c-0.1,0.5-0.7,0.8-1,0.7l-55-7.8l0.3-2
	l54.2,7.7l3.9-13.9l-55.9-8.3c-0.3,0-0.5-0.3-0.7-0.4c-0.1-0.3-0.3-0.5-0.1-0.8c1.8-6.6,3.6-13.1,5.5-19.6
	c4.6-16.5,8.8-32.3,13.9-47.9c2.1-6.2,6.4-12.7,13.1-19.9c3.4-3.5,7.5-5.2,11.7-4.9c4.7,0.3,9.1,2.9,12.4,7.4c0.5,0.7,1,1.4,1.6,2.1
	c2,2.6,3.9,5.3,6.2,7.7c3.3,3.1,8.5,5.1,11.8,1.8c2-1.8,2.1-6.2,2.3-9.8c0-0.5,0-1,0.1-1.6c0-1-1.4-2.7-2.5-3.9l-0.5-0.5
	c-5.7-6.5-13.7-9.8-24.3-10.3c-18.6-0.8-34.1,7.7-47.3,25.7c-11.3,14.7-16.6,32.4-21.7,49.5l-1,3.6c-1.2,3.8-2.1,7.4-3.1,11.4
	c-0.5,1.8-1,3.6-1.6,5.6c-0.1,0.5-0.7,0.8-1,0.7l-5.2-0.8c-18.3-2.6-36.2-5.2-54.4-7.8l-1.8,14.2l58.3,9c0.3,0,0.5,0.1,0.7,0.4
	c0.1,0.3,0.3,0.5,0.1,0.8l-7.7,32.4c-0.1,0.5-0.7,0.8-1,0.8l-55.5-7.8l-1.8,13.9l53.8,8.2c0.5,0.1,0.8,0.5,0.8,0.9
	c0,0.7,0,1.3,0,1.8c0,1,0.1,1.8-0.1,2.7c-1.6,6.6-3.1,13.1-4.6,19.8c-4,17.8-8.3,36.2-13.1,54.1c-3.8,14.3-9.6,24.4-18.1,31.6
	C1095.6,468.7,1091.7,470.2,1088,470.2z"/>
<path class="st10" d="M1144.5,540.2c-45.9,0-89.5-14.6-126.3-42c-0.3-0.1-0.4-0.5-0.4-0.8s0.1-0.7,0.4-0.8l39.8-27
	c0.4-0.3,0.8-0.3,1.2,0c8.6,6.6,19.5,8.7,32.5,6.2c18.5-3.6,32.5-14.8,41.6-33c6.9-13.9,12-28.7,16.6-42.7c3-9.1,5.3-18.2,7.7-28
	c1-4.2,2.1-8.5,3.3-12.7c0.1-0.5,0.7-0.8,1-0.8l56.8,8.2l4-14l-58-8.6c-0.3,0-0.5-0.1-0.7-0.4c-0.1-0.3-0.3-0.5-0.1-0.8l6.8-32.8
	l2,0.4l-6.5,31.7l58.1,8.6c0.3,0,0.5,0.3,0.7,0.4c0.1,0.1,0.1,0.5,0.1,0.8l-4.6,15.9c-0.1,0.5-0.7,0.8-1,0.7l-56.8-8.2
	c-1,4-2.1,7.9-3,11.8c-2.5,9.8-4.7,18.9-7.8,28.1c-4.7,14-9.8,28.9-16.6,42.9c-9.2,18.6-24.1,30.4-42.9,34.1
	c-13.3,2.6-24.4,0.5-33.4-6.1l-38.1,25.9c36.2,26.8,79.1,40.8,124.1,40.8c0.3,0,0.5,0,0.8,0v2C1145,540.2,1144.8,540.2,1144.5,540.2
	z"/>
<g>
	
		<rect x="988.7" y="426.1" transform="matrix(0.4154 -0.9096 0.9096 0.4154 102.7717 1206.0684)" class="st12" width="2" height="194"/>
</g>
<g id="Mark_25_" transform="translate(-0.000643, 0.343641)">
	<g>
		<path class="st10" d="M901.5,667c-0.1,0-0.1,0-0.3,0c-0.4-0.1-0.8-0.5-0.8-0.9V484l-174.9,79.8c-0.4,0.1-0.9,0.1-1.2-0.3
			c-0.3-0.4-0.4-0.8-0.1-1.2l176.5-292.5c0.3-0.4,0.7-0.5,1-0.4s0.7,0.5,0.7,0.9v391.8l102-175.8c-45.8-40.7-71.9-99-71.7-160.1
			c0.3-56.7,22.6-109.9,63.1-149.9c40.3-39.8,93.4-61.5,149.7-61.5c0.4,0,0.9,0,1.3,0c56.7,0.4,109.9,22.9,149.9,63.3
			c39.9,40.4,61.6,94,61.3,150.9c-0.9,116.3-95.8,210.7-211.8,210.7c-0.3,0-0.4,0-0.7,0v-2c0.3,0,0.4,0,0.7,0
			c115,0,209-93.5,209.9-208.7c0.4-56.3-21.1-109.4-60.6-149.6c-39.7-40.2-92.3-62.4-148.5-62.8c-56.4-0.3-109.5,21.3-149.6,61
			c-40.1,39.7-62.3,92.5-62.6,148.6c-0.3,60.9,25.7,118.9,71.5,159.2c0.4,0.3,0.4,0.8,0.3,1.2L902.4,666.4
			C902.2,666.7,901.9,667,901.5,667z M900.6,274L727.5,560.7l173.1-79.1L900.6,274L900.6,274z"/>
	</g>
</g>
</svg>
