<?xml version="1.0" encoding="utf-8"?>
<!-- Generator: Adobe Illustrator 25.4.1, SVG Export Plug-In . SVG Version: 6.00 Build 0)  -->
<svg version="1.1" id="Layer_1" xmlns="http://www.w3.org/2000/svg" xmlns:xlink="http://www.w3.org/1999/xlink" x="0px" y="0px"
	 viewBox="0 0 177 37" style="enable-background:new 0 0 177 37;" xml:space="preserve">
<style type="text/css">
	.st0{fill:none;stroke:#21CD9D;stroke-width:3.3278;}
</style>
<rect x="7.4" y="18.1" class="st0" width="11.4" height="11.4"/>
<rect x="18.8" y="6.7" class="st0" width="11.4" height="11.4"/>
<path d="M41,19.1v3.8h11.9v2.6h-15V10.1h15v2.6H41v3.8h9.7v2.5H41z M55.9,10.1h16.2v2.6H55.9V10.1z M62.5,12.5h3.2v13.1h-3.2V12.5z
	 M78.8,19.1v3.8h11.9v2.6h-15V10.1h15v2.6H78.8v3.8h9.7v2.5H78.8z M95.1,25.5V10.1h10.4c1.2,0,2.2,0.2,3.1,0.5
	c0.9,0.3,1.6,0.8,2.1,1.5c0.5,0.7,0.7,1.6,0.7,2.6c0,0.7-0.1,1.3-0.4,1.9c-0.3,0.5-0.6,0.9-1.1,1.2c-0.4,0.3-1,0.6-1.5,0.7
	c-0.6,0.2-1.2,0.3-1.9,0.3l-0.3-0.2c1.1,0,2,0.1,2.7,0.3c0.7,0.2,1.2,0.5,1.6,0.9c0.4,0.4,0.5,1.1,0.5,1.9v3.7h-3.2v-3.4
	c0-0.6-0.1-1-0.3-1.4c-0.2-0.3-0.6-0.6-1.1-0.7c-0.5-0.1-1.3-0.2-2.3-0.2h-6v5.7H95.1z M98.2,17.4h7.3c0.9,0,1.6-0.2,2-0.6
	c0.5-0.4,0.7-1,0.7-1.7c0-0.7-0.2-1.2-0.7-1.6c-0.5-0.4-1.1-0.5-2-0.5h-7.3V17.4z M131.5,22.4l-1,0.4V10.1h3.2v15.4h-3.2l-12.4-12.1
	l1-0.4v12.6h-3.2V10.1h3.2L131.5,22.4z M140.9,22.2v-2.6h10.2v2.6H140.9z M137.1,25.5l7.2-15.4h3.4l7.3,15.4h-3.4l-6.3-13.9h1.5
	l-6.3,13.9H137.1z M161.6,10.1v12.7h10.2v2.6h-13.4V10.1H161.6z"/>
</svg>
