<svg width="62" height="62" xmlns="http://www.w3.org/2000/svg" xmlns:xlink="http://www.w3.org/1999/xlink">
    <defs>
        <path id="c" d="M-1.308 8.365L20.727 19.64l-.155 9.29-21.88 10.735z" />
        <path id="e" d="M25.25 19.5L30 29h-9.5z" />
        <linearGradient x1="88.429%" y1="53.486%" x2="121.095%" y2="53.486%" id="d">
            <stop stop-opacity="0" offset="0%" />
            <stop stop-opacity=".1" offset="100%" />
        </linearGradient>
        <circle id="a" cx="24" cy="24" r="24" />
    </defs>
    <g fill="none" fill-rule="evenodd">
        <path d="M46.703 1C55.375 1 61 6.625 61 15.297v31.406C61 55.375 55.375 61 46.703 61H15.297C6.625 61 1 55.375 1 46.703V15.297C1 6.625 6.625 1 15.297 1h31.406z" fill="#FFF" />
        <path d="M46.703 1C55.375 1 61 6.625 61 15.297v31.406C61 55.375 55.375 61 46.703 61H15.297C6.625 61 1 55.375 1 46.703V15.297C1 6.625 6.625 1 15.297 1h31.406z" stroke="#A4A4A4" stroke-width=".5" />
        <g transform="translate(7 7)">
            <mask id="b" fill="#fff">
                <use xlink:href="#a" />
            </mask>
            <use fill="#333" xlink:href="#a" />
            <circle fill="#E23229" mask="url(#b)" cx="24.032" cy="24.305" r="11.25" />
            <g mask="url(#b)">
                <use fill-opacity=".25" fill="#484848" xlink:href="#c" />
                <use fill="url(#d)" xlink:href="#c" />
            </g>
            <mask id="f" fill="#fff">
                <use xlink:href="#e" />
            </mask>
            <use fill="#FFF" xlink:href="#e" />
            <path fill="#E9E9E9" mask="url(#f)" d="M20.5 19.5l9.484 6.476 1.03-3.285z" />
        </g>
    </g>
</svg>