<?xml version="1.0" encoding="UTF-8"?>
<svg width="52px" height="51px" viewBox="0 0 52 51" version="1.1" xmlns="http://www.w3.org/2000/svg" xmlns:xlink="http://www.w3.org/1999/xlink">
    <!-- Generator: Sketch 62 (91390) - https://sketch.com -->
    <title>Group 23 Copy 7</title>
    <desc>Created with Sketch.</desc>
    <defs>
        <path d="M6.332,0.3228 C5.057,0.3228 3.928,1.1518 3.548,2.3688 L3.548,2.3688 L0.112,16.2478 L27.72,16.2448 L24.284,2.3688 C23.903,1.1518 22.775,0.3228 21.5,0.3228 L21.5,0.3228 L6.332,0.3228 Z" id="path-1"></path>
        <linearGradient x1="3.3299895%" y1="32.8457693%" x2="94.8727202%" y2="74.9964825%" id="linearGradient-3">
            <stop stop-color="#5BA5CA" offset="0%"></stop>
            <stop stop-color="#3A6EDB" offset="100%"></stop>
        </linearGradient>
        <path d="M3.119,0.8818 C1.409,0.8818 0.022,2.2688 0.022,3.9788 L0.022,3.9788 C0.022,5.6888 1.409,7.0758 3.119,7.0758 L3.119,7.0758 L24.713,7.0758 C26.423,7.0758 27.81,5.6888 27.81,3.9788 L27.81,3.9788 C27.81,2.2688 26.423,0.8818 24.713,0.8818 L24.713,0.8818 L3.119,0.8818 Z" id="path-4"></path>
        <linearGradient x1="3.1240773%" y1="35.3352719%" x2="48.5989531%" y2="49.5618541%" id="linearGradient-6">
            <stop stop-color="#5BA5CA" offset="0%"></stop>
            <stop stop-color="#3A6EDB" offset="100%"></stop>
        </linearGradient>
    </defs>
    <g id="Page-1" stroke="none" stroke-width="1" fill="none" fill-rule="evenodd">
        <g id="Desktop-16:9-Copy-174" transform="translate(-958.000000, -7285.000000)">
            <g id="Protect-data" transform="translate(56.000000, 6025.000000)">
                <g id="Group-23-Copy-7" transform="translate(903.000000, 1261.000000)">
                    <path d="M49.3319,24.416 C49.3319,37.9 38.3999,48.832 24.9159,48.832 C11.4319,48.832 0.4999,37.9 0.4999,24.416 C0.4999,10.932 11.4319,7.27595761e-12 24.9159,7.27595761e-12 C38.3999,7.27595761e-12 49.3319,10.932 49.3319,24.416 Z" id="Stroke-1" stroke="#3376C0" stroke-width="2"></path>
                    <g id="Group-5" transform="translate(11.000000, 13.831800)">
                        <mask id="mask-2" fill="white">
                            <use xlink:href="#path-1"></use>
                        </mask>
                        <g id="Clip-4"></g>
                        <path d="M6.332,0.3228 C5.057,0.3228 3.928,1.1518 3.548,2.3688 L3.548,2.3688 L0.112,16.2478 L27.72,16.2448 L24.284,2.3688 C23.903,1.1518 22.775,0.3228 21.5,0.3228 L21.5,0.3228 L6.332,0.3228 Z" id="Fill-3" fill="url(#linearGradient-3)" mask="url(#mask-2)"></path>
                    </g>
                    <g id="Group-12" transform="translate(28.000000, 30.831800)" stroke="#000000">
                        <line x1="6.3163" y1="0.843" x2="6.3163" y2="3.845" id="Stroke-6"></line>
                        <line x1="3.6883" y1="0.843" x2="3.6883" y2="3.845" id="Stroke-8"></line>
                        <line x1="1.0614" y1="0.843" x2="1.0614" y2="3.845" id="Stroke-10"></line>
                    </g>
                    <g id="Group-15" transform="translate(11.000000, 26.831800)">
                        <mask id="mask-5" fill="white">
                            <use xlink:href="#path-4"></use>
                        </mask>
                        <g id="Clip-14"></g>
                        <path d="M3.119,0.8818 C1.409,0.8818 0.022,2.2688 0.022,3.9788 L0.022,3.9788 C0.022,5.6888 1.409,7.0758 3.119,7.0758 L3.119,7.0758 L24.713,7.0758 C26.423,7.0758 27.81,5.6888 27.81,3.9788 L27.81,3.9788 C27.81,2.2688 26.423,0.8818 24.713,0.8818 L24.713,0.8818 L3.119,0.8818 Z" id="Fill-13" fill="url(#linearGradient-6)" mask="url(#mask-5)"></path>
                    </g>
                    <g id="Group-22" transform="translate(26.000000, 28.831800)" fill="#000000">
                        <path d="M10.6942,1.9787 C10.6942,2.6357 10.1622,3.1677 9.5062,3.1677 C8.8482,3.1677 8.3162,2.6357 8.3162,1.9787 C8.3162,1.3227 8.8482,0.7907 9.5062,0.7907 C10.1622,0.7907 10.6942,1.3227 10.6942,1.9787" id="Fill-16"></path>
                        <path d="M6.6913,1.9787 C6.6913,2.6357 6.1593,3.1677 5.5023,3.1677 C4.8453,3.1677 4.3133,2.6357 4.3133,1.9787 C4.3133,1.3227 4.8453,0.7907 5.5023,0.7907 C6.1593,0.7907 6.6913,1.3227 6.6913,1.9787" id="Fill-18"></path>
                        <path d="M2.6883,1.9787 C2.6883,2.6357 2.1563,3.1677 1.4993,3.1677 C0.8423,3.1677 0.3103,2.6357 0.3103,1.9787 C0.3103,1.3227 0.8423,0.7907 1.4993,0.7907 C2.1563,0.7907 2.6883,1.3227 2.6883,1.9787" id="Fill-20"></path>
                    </g>
                </g>
            </g>
        </g>
    </g>
</svg>