<svg xmlns="http://www.w3.org/2000/svg" width="62" height="62"><g fill="none" fill-rule="evenodd"><path d="M46.703 1C55.375 1 61 6.625 61 15.297v31.406C61 55.375 55.375 61 46.703 61H15.297C6.625 61 1 55.375 1 46.703V15.297C1 6.625 6.625 1 15.297 1h31.406z" fill="#FFF"></path><path d="M46.703 1C55.375 1 61 6.625 61 15.297v31.406C61 55.375 55.375 61 46.703 61H15.297C6.625 61 1 55.375 1 46.703V15.297C1 6.625 6.625 1 15.297 1h31.406z" stroke="#A4A4A4" stroke-width=".5"></path><g stroke="#000" stroke-width="2"><path d="M30.966 48.75c9.734 0 17.625-7.891 17.625-17.625S40.701 13.5 30.966 13.5c-9.734 0-17.625 7.891-17.625 17.625S21.232 48.75 30.966 48.75z"></path><path d="M30.966 41.5c5.8 0 10.5-4.701 10.5-10.5s-4.7-10.5-10.5-10.5c-5.799 0-10.5 4.701-10.5 10.5s4.701 10.5 10.5 10.5z"></path><path d="M31 45c7.732 0 14-6.268 14-14s-6.268-14-14-14-14 6.268-14 14 6.268 14 14 14z"></path></g><g fill="#000"><path d="M34.799 13.931l.97.242-.847 3.396-.97-.242.847-3.396zm3.972 1.376l.883.47-1.643 3.09-.883-.47 1.643-3.09zm3.542 2.494l.707.707-2.474 2.475-.708-.707 2.475-2.475zm2.818 2.84l.56.828-2.903 1.957-.559-.829 2.902-1.957zm2.03 3.68l.343.94-3.29 1.196-.341-.94 3.289-1.196zm.964 4.223l.053 1-3.495.182-.053-.998 3.495-.184zM34.8 48.226l.97-.242-.847-3.396-.97.242.847 3.396zm3.972-1.376l.883-.47-1.643-3.09-.883.47 1.643 3.09zm3.542-2.494l.707-.707-2.474-2.475-.708.707 2.475 2.475zm2.818-2.839l.56-.829-2.903-1.957-.559.829 2.902 1.957zm2.03-3.68l.343-.94-3.29-1.197-.341.94 3.289 1.197zm.964-4.224l.053-.999-3.495-.183-.053.999 3.495.183zM27.331 13.93l-.97.242.846 3.396.97-.242-.846-3.396zm4.168-.418h-1v3.5h1v-3.5zm0 31.5h-1v3.5h1v-3.5zm-8.14-29.706l-.883.47 1.643 3.09.883-.47-1.643-3.09zm-3.542 2.494l-.707.707 2.474 2.475.708-.707-2.475-2.475zm-2.818 2.84l-.56.828 2.903 1.957.559-.829-2.902-1.957zm-2.03 3.68l-.343.94 3.29 1.196.341-.94-3.289-1.196zm-.964 4.223l-.053 1 3.495.182.053-.998-3.495-.184zM27.33 48.226l-.97-.242.846-3.396.97.242-.846 3.396zm-3.972-1.376l-.883-.47 1.643-3.09.883.47-1.643 3.09zm-3.542-2.494l-.707-.707 2.474-2.475.708.707-2.475 2.475zm-2.818-2.839l-.56-.829 2.903-1.957.559.829-2.902 1.957zm-2.03-3.68l-.343-.94 3.29-1.197.341.94-3.289 1.197zm-.964-4.224l-.053-.999 3.495-.183.053.999-3.495.183z"></path><path d="M31.507 41.179v3.5h-1v-3.5h1zm-5.118-1.208l.866.5-2 3.464-.866-.5 2-3.464zm9.368.062l1.635 2.902-.866.5-1.655-3.01.886-.392zM22.883 36.93l.67.743-2.973 2.677-.67-.743 2.973-2.677zm16.462-.077l2.525 2.254-.67.743-2.458-2.234.603-.763zm1.658-4.068l3.804 1.236-.309.95-3.804-1.235.309-.951zm-20.225 0l.31.95-3.805 1.237-.31-.951 3.805-1.236zm-3.495-5.61l3.804 1.237-.309.95-3.804-1.235.309-.951zm27.215 0l.31.952-3.805 1.236-.31-.951 3.805-1.236zM20.58 21.799l2.76 2.515-.577.782-2.852-2.553.669-.744zm20.62 0l.67.744-2.642 2.366-.579-.768 2.552-2.342zm-15.945-3.584l2 3.465-.866.5-2-3.465.866-.5zm11.286-.029l.76.38-1.476 3.098-.759-.379 1.475-3.099zm-5.034-1.006v3.5h-1v-3.5h1z"></path></g></g></svg>
