<svg xmlns="http://www.w3.org/2000/svg" xmlns:xlink="http://www.w3.org/1999/xlink" width="62" height="62"><defs><path d="M45.703 0C54.375 0 60 5.625 60 14.297v31.406C60 54.375 54.375 60 45.703 60H14.297C5.625 60 0 54.375 0 45.703V14.297C0 5.625 5.625 0 14.297 0h31.406z" id="a"/><path d="M17.493.002c9.182 0 16.394 7.386 16.505 16.541h-18.68c.086.033 4.031 1.52 8.272 3.862 3.645 2.012 7.673 4.793 9.817 8.467 1.353 2.318 2.001 5.132 1.363 8.11-.85 3.966-3.23 7.882-6.238 12.17-6.916 9.86-15.23 19.698-15.23 19.698l.278-8.807-10.179-.115s-1.634-4.405-2.33-10.35C.496 44.66.207 38.651.19 34.787.16 28.825.832 16.543.832 16.543.947 7.388 8.312.003 17.493.003z" id="c"/><path d="M.071 26.636s27.784.26 32.925-13.283c1.93-5.086-.266-8.418-2.037-10.282-2.944-3.099-7.27-2.65-7.27-2.65s-3.99.144-7.886 3.547c-1.868 1.631-3.642 4.122-5.1 6.628-1.268 2.183-2.278 4.368-3.162 6.147C3.543 24.79.07 26.636.07 26.636z" id="e"/><linearGradient x1="35.562%" y1="60.776%" x2="82.92%" y2="34.373%" id="f"><stop stop-color="#69BD44" offset="0%"/><stop stop-color="#3AB549" offset="100%"/></linearGradient></defs><g fill="none" fill-rule="evenodd"><path d="M46.703 1C55.375 1 61 6.625 61 15.297v31.406C61 55.375 55.375 61 46.703 61H15.297C6.625 61 1 55.375 1 46.703V15.297C1 6.625 6.625 1 15.297 1h31.406z" fill="#FFF"/><g transform="translate(1 1)"><mask id="b" fill="#fff"><use xlink:href="#a"/></mask><use fill="#FFF" xlink:href="#a"/><g mask="url(#b)"><g transform="translate(15.5 4)"><mask id="d" fill="#fff"><use xlink:href="#c"/></mask><path d="M17.249 0C8.067 0 .61 7.388.5 16.543h33.498C33.887 7.388 26.43 0 17.248 0z" fill="#FECD07" mask="url(#d)"/><path d="M13.58 69.407S21.542 59 28.458 49.14c3.008-4.288 5.41-8.142 6.26-12.11a11.268 11.268 0 00-1.296-8.12c-2.144-3.673-6.356-6.57-10.001-8.582-4.288-2.367-8.142-3.784-8.142-3.784H.496s-.67 12.237-.642 18.2c.018 3.865.284 10.148.86 15.065.695 5.946 2.354 10.235 2.354 10.235H13.58v9.364z" fill="#2FAADD" mask="url(#d)"/><path d="M23.341 8.384c0-4.457-3.812-8.06-8.262-8.092H-2.73v16.246l-1.273.005s-.67 12.237-.642 18.2c.018 3.865.284 10.148.86 15.065.695 5.946 2.354 10.235 2.354 10.235H9.08l2.74 9.207s6.464-9.229 13.233-19.314c3.55-5.29 4.904-8.018 5.753-11.985.638-2.977-.237-7.247-1.59-9.566-1.062-1.82-3.395-4.37-6.603-6.948-2.952-2.372-6.684-4.51-7.373-4.898 4.38-.108 8.101-3.747 8.101-8.155z" fill="#EE3E36" mask="url(#d)"/><g mask="url(#d)"><g transform="translate(9.005 2.541)"><circle fill="#FFF" cx="6.153" cy="5.942" r="5.75"/><circle stroke="#5A5DAA" stroke-width="2.5" fill="#2FAADD" cx="6.115" cy="5.922" r="2.875"/></g></g><path d="M-.295 49.443c.33.365 1.296.2 1.296.2s13.772-.9 21.1-7.36c2.894-2.55 5.469-6.111 4.753-10.612-.333-1.56-.819-2.907-1.541-4.037-1.61-2.519-4.092-3.975-6.512-4.416-6.014-1.097-13.178 3.814-16.717 10.45-1.261 2.365-2.38 4.628-2.38 7.362 0 7.313-.317 8.06 0 8.413z" fill="#FFF" mask="url(#d)"/></g><g transform="translate(7 26)"><mask id="g" fill="#fff"><use xlink:href="#e"/></mask><use fill="url(#f)" xlink:href="#e"/><path d="M7.668 14.61s6.48-2.573 3.8 2.613c-.86 1.58.727.616 2.334-.213 1.606-.83 2.503-.823 2.503-.823s1.772-.18 1.04 1.186c-.731 1.365-4.71 4.654-4.71 4.654s-1.495 1.09 1.087.674c2.583-.416-.607 2.355-1.5 2.933-.895.578-6.337 1.72-6.337 1.72l-6.18.063-1.217-1.9 9.18-10.908z" fill="#D6DF20" mask="url(#g)"/></g></g></g><path d="M46.703 1C55.375 1 61 6.625 61 15.297v31.406C61 55.375 55.375 61 46.703 61H15.297C6.625 61 1 55.375 1 46.703V15.297C1 6.625 6.625 1 15.297 1h31.406z" stroke="#A4A4A4" stroke-width=".5"/></g></svg>
